<svg width="256" height="256" viewBox="0 0 256 256" fill="none" xmlns="http://www.w3.org/2000/svg">
<g clip-path="url(#clip0_11357_34906)">
<path d="M128 256C198.692 256 256 198.692 256 128C256 57.3075 198.692 0 128 0C57.3075 0 0 57.3075 0 128C0 198.692 57.3075 256 128 256Z" fill="#F79009"/>
<g filter="url(#filter0_d_11357_34906)">
<rect x="60" y="60" width="136" height="136" rx="8" fill="#FDE7D2" stroke="#B54708" stroke-width="8"/>
<rect x="73.5996" y="87.1992" width="108.8" height="9.06667" rx="4.53333" fill="#CB680D"/>
<rect x="73.5996" y="123.467" width="108.8" height="9.06667" rx="4.53333" fill="#CB680D"/>
<rect x="73.5996" y="159.732" width="108.8" height="9.06667" rx="4.53333" fill="#CB680D"/>
<circle cx="103.067" cy="91.7328" r="9.6" fill="#FDE7D2" stroke="#CB680D" stroke-width="8"/>
<circle cx="152.934" cy="128" r="9.6" fill="#FDE7D2" stroke="#CB680D" stroke-width="8"/>
<circle cx="103.067" cy="164.266" r="9.6" fill="#FDE7D2" stroke="#CB680D" stroke-width="8"/>
</g>
</g>
<defs>
<filter id="filter0_d_11357_34906" x="56" y="56" width="154" height="154" filterUnits="userSpaceOnUse" color-interpolation-filters="sRGB">
<feFlood flood-opacity="0" result="BackgroundImageFix"/>
<feColorMatrix in="SourceAlpha" type="matrix" values="0 0 0 0 0 0 0 0 0 0 0 0 0 0 0 0 0 0 127 0" result="hardAlpha"/>
<feOffset dx="10" dy="10"/>
<feComposite in2="hardAlpha" operator="out"/>
<feColorMatrix type="matrix" values="0 0 0 0 0 0 0 0 0 0 0 0 0 0 0 0 0 0 0.16 0"/>
<feBlend mode="normal" in2="BackgroundImageFix" result="effect1_dropShadow_11357_34906"/>
<feBlend mode="normal" in="SourceGraphic" in2="effect1_dropShadow_11357_34906" result="shape"/>
</filter>
<clipPath id="clip0_11357_34906">
<rect width="256" height="256" fill="white"/>
</clipPath>
</defs>
</svg>
